<svg width="123" height="28" viewBox="0 0 123 28" fill="none" xmlns="http://www.w3.org/2000/svg">
<path d="M11.8125 0.875C11.6458 1.04167 11.5 1.20833 11.375 1.375C11.25 1.54167 11.1458 1.70833 11.0625 1.875L0.9375 26.625C0.895833 26.75 0.875 26.8542 0.875 26.9375C0.875 27.1042 0.916667 27.25 1 27.375C1.08333 27.5 1.20833 27.5833 1.375 27.625C1.54167 27.6667 1.70833 27.6667 1.875 27.625C2.04167 27.5833 2.16667 27.5 2.25 27.375L6 18.875H17L20.75 27.375C20.8333 27.5 20.9583 27.5833 21.125 27.625C21.2917 27.6667 21.4583 27.6667 21.625 27.625C21.7917 27.5833 21.9167 27.5 22 27.375C22.0833 27.25 22.125 27.1042 22.125 26.9375C22.125 26.8542 22.1042 26.75 22.0625 26.625L11.9375 1.875C11.8542 1.70833 11.75 1.54167 11.625 1.375C11.5 1.20833 11.3542 1.04167 11.1875 0.875C11.0208 0.708333 10.8333 0.583333 10.625 0.5C10.4167 0.416667 10.2083 0.375 10 0.375C9.79167 0.375 9.58333 0.416667 9.375 0.5C9.16667 0.583333 8.97917 0.708333 8.8125 0.875C8.64583 1.04167 8.5 1.20833 8.375 1.375L2 18.875M11.5 5.375L16.5 17.875H6.5L11.5 5.375Z" fill="black"/>
<path d="M40.2344 8.46875C40.2344 9.09375 40.1302 9.67708 39.9219 10.2188C39.7135 10.7604 39.4167 11.2292 39.0312 11.625C38.6562 12.0208 38.2031 12.3333 37.6719 12.5625C37.1406 12.7917 36.5469 12.9062 35.8906 12.9062H32.6562V20.25C32.6562 20.4583 32.5833 20.6354 32.4375 20.7812C32.2917 20.9271 32.1146 21 31.9062 21C31.6979 21 31.5208 20.9271 31.375 20.7812C31.2292 20.6354 31.1562 20.4583 31.1562 20.25V8.1875C31.1562 7.97917 31.2292 7.80208 31.375 7.65625C31.5208 7.51042 31.6979 7.4375 31.9062 7.4375H35.8906C36.5469 7.4375 37.1406 7.55208 37.6719 7.78125C38.2031 8.01042 38.6562 8.32292 39.0312 8.71875C39.4167 9.11458 39.7135 9.58333 39.9219 10.125C40.1302 10.6667 40.2344 11.25 40.2344 11.875V8.46875ZM38.7344 11.875C38.7344 11.4062 38.6562 10.9792 38.5 10.5938C38.3438 10.2083 38.125 9.88542 37.8438 9.625C37.5625 9.35417 37.2292 9.14583 36.8438 9C36.4583 8.85417 36.0365 8.78125 35.5781 8.78125H32.6562V11.5625H35.5781C36.0365 11.5625 36.4583 11.4896 36.8438 11.3438C37.2292 11.1979 37.5625 10.9948 37.8438 10.7344C38.125 10.4635 38.3438 10.1458 38.5 9.78125C38.6562 9.41667 38.7344 9.01042 38.7344 8.5625V11.875Z" fill="black"/>
<path d="M50.0781 7.4375C50.2865 7.4375 50.4635 7.51042 50.6094 7.65625C50.7552 7.80208 50.8281 7.97917 50.8281 8.1875V20.25C50.8281 20.4583 50.7552 20.6354 50.6094 20.7812C50.4635 20.9271 50.2865 21 50.0781 21C49.8698 21 49.6927 20.9271 49.5469 20.7812C49.401 20.6354 49.3281 20.4583 49.3281 20.25V8.1875C49.3281 7.97917 49.401 7.80208 49.5469 7.65625C49.6927 7.51042 49.8698 7.4375 50.0781 7.4375Z" fill="black"/>
<path d="M62.4844 7.4375C62.6927 7.4375 62.8698 7.51042 63.0156 7.65625C63.1615 7.80208 63.2344 7.97917 63.2344 8.1875V20.25C63.2344 20.4583 63.1615 20.6354 63.0156 20.7812C62.8698 20.9271 62.6927 21 62.4844 21C62.276 21 62.099 20.9271 61.9531 20.7812C61.8073 20.6354 61.7344 20.4583 61.7344 20.25V12.9062H54.0156V20.25C54.0156 20.4583 53.9427 20.6354 53.7969 20.7812C53.651 20.9271 53.474 21 53.2656 21C53.0573 21 52.8802 20.9271 52.7344 20.7812C52.5885 20.6354 52.5156 20.4583 52.5156 20.25V8.1875C52.5156 7.97917 52.5885 7.80208 52.7344 7.65625C52.8802 7.51042 53.0573 7.4375 53.2656 7.4375C53.474 7.4375 53.651 7.51042 53.7969 7.65625C53.9427 7.80208 54.0156 7.97917 54.0156 8.1875V11.5625H61.7344V8.1875C61.7344 7.97917 61.8073 7.80208 61.9531 7.65625C62.099 7.51042 62.276 7.4375 62.4844 7.4375Z" fill="black"/>
<path d="M73.8281 7.4375C74.0365 7.4375 74.2135 7.51042 74.3594 7.65625C74.5052 7.80208 74.5781 7.97917 74.5781 8.1875V18.125C74.5781 18.7917 74.4635 19.3958 74.2344 19.9375C74.0156 20.4688 73.7083 20.9271 73.3125 21.3125C72.9271 21.6979 72.4635 21.9948 71.9219 22.2031C71.3906 22.4219 70.8073 22.5312 70.1719 22.5312C69.5365 22.5312 68.9531 22.4219 68.4219 22.2031C67.8906 21.9948 67.4271 21.6979 67.0312 21.3125C66.6458 20.9271 66.3385 20.4688 66.1094 19.9375C65.8906 19.3958 65.7812 18.7917 65.7812 18.125V8.1875C65.7812 7.97917 65.8542 7.80208 66 7.65625C66.1458 7.51042 66.3229 7.4375 66.5312 7.4375C66.7396 7.4375 66.9167 7.51042 67.0625 7.65625C67.2083 7.80208 67.2812 7.97917 67.2812 8.1875V18.125C67.2812 18.5938 67.3594 19.0208 67.5156 19.4062C67.6719 19.7917 67.8906 20.1146 68.1719 20.375C68.4531 20.6458 68.7812 20.8542 69.1562 21C69.5312 21.1458 69.9427 21.2188 70.3906 21.2188C70.8281 21.2188 71.224 21.1458 71.5781 21C71.9427 20.8542 72.2552 20.6458 72.5156 20.375C72.7865 20.1146 72.9948 19.7917 73.1406 19.4062C73.2865 19.0208 73.3594 18.5938 73.3594 18.125V8.1875C73.3594 7.97917 73.4323 7.80208 73.5781 7.65625C73.724 7.51042 73.901 7.4375 74.1094 7.4375H73.8281Z" fill="black"/>
<path d="M87.0156 7.4375C87.224 7.4375 87.401 7.51042 87.5469 7.65625C87.6927 7.80208 87.7656 7.97917 87.7656 8.1875V20.25C87.7656 20.4583 87.6927 20.6354 87.5469 20.7812C87.401 20.9271 87.224 21 87.0156 21C86.8073 21 86.6302 20.9271 86.4844 20.7812C86.3385 20.6354 86.2656 20.4583 86.2656 20.25V12.9062H78.5469V20.25C78.5469 20.4583 78.474 20.6354 78.3281 20.7812C78.1823 20.9271 78.0052 21 77.7969 21C77.5885 21 77.4115 20.9271 77.2656 20.7812C77.1198 20.6354 77.0469 20.4583 77.0469 20.25V8.1875C77.0469 7.97917 77.1198 7.80208 77.2656 7.65625C77.4115 7.51042 77.5885 7.4375 77.7969 7.4375C78.0052 7.4375 78.1823 7.51042 78.3281 7.65625C78.474 7.80208 78.5469 7.97917 78.5469 8.1875V11.5625H86.2656V8.1875C86.2656 7.97917 86.3385 7.80208 86.4844 7.65625C86.6302 7.51042 86.8073 7.4375 87.0156 7.4375Z" fill="black"/>
<path d="M98.3594 7.4375C98.5677 7.4375 98.7448 7.51042 98.8906 7.65625C99.0365 7.80208 99.1094 7.97917 99.1094 8.1875V20.25C99.1094 20.4583 99.0365 20.6354 98.8906 20.7812C98.7448 20.9271 98.5677 21 98.3594 21C98.151 21 97.974 20.9271 97.8281 20.7812C97.6823 20.6354 97.6094 20.4583 97.6094 20.25V8.1875C97.6094 7.97917 97.6823 7.80208 97.8281 7.65625C97.974 7.51042 98.151 7.4375 98.3594 7.4375Z" fill="black"/>
<path d="M109.703 7.4375C109.911 7.4375 110.088 7.51042 110.234 7.65625C110.38 7.80208 110.453 7.97917 110.453 8.1875V19.6562C110.453 19.8646 110.38 20.0417 110.234 20.1875C110.088 20.3333 109.911 20.4062 109.703 20.4062H102.297C102.089 20.4062 101.912 20.3333 101.766 20.1875C101.62 20.0417 101.547 19.8646 101.547 19.6562V8.1875C101.547 7.97917 101.62 7.80208 101.766 7.65625C101.912 7.51042 102.089 7.4375 102.297 7.4375C102.505 7.4375 102.682 7.51042 102.828 7.65625C102.974 7.80208 103.047 7.97917 103.047 8.1875V19.0625H108.953V8.1875C108.953 7.97917 109.026 7.80208 109.172 7.65625C109.318 7.51042 109.495 7.4375 109.703 7.4375Z" fill="black"/>
<path d="M121.047 7.4375C121.255 7.4375 121.432 7.51042 121.578 7.65625C121.724 7.80208 121.797 7.97917 121.797 8.1875V19.6562C121.797 19.8646 121.724 20.0417 121.578 20.1875C121.432 20.3333 121.255 20.4062 121.047 20.4062H113.641C113.432 20.4062 113.255 20.3333 113.109 20.1875C112.964 20.0417 112.891 19.8646 112.891 19.6562V8.1875C112.891 7.97917 112.964 7.80208 113.109 7.65625C113.255 7.51042 113.432 7.4375 113.641 7.4375C113.849 7.4375 114.026 7.51042 114.172 7.65625C114.318 7.80208 114.391 7.97917 114.391 8.1875V19.0625H120.297V8.1875C120.297 7.97917 120.37 7.80208 120.516 7.65625C120.661 7.51042 120.839 7.4375 121.047 7.4375Z" fill="#D4AF37"/>
<path d="M30.5 0.875C30.3333 1.04167 30.1875 1.20833 30.0625 1.375C29.9375 1.54167 29.8333 1.70833 29.75 1.875L19.625 26.625C19.5833 26.75 19.5625 26.8542 19.5625 26.9375C19.5625 27.1042 19.6042 27.25 19.6875 27.375C19.7708 27.5 19.8958 27.5833 20.0625 27.625C20.2292 27.6667 20.3958 27.6667 20.5625 27.625C20.7292 27.5833 20.8542 27.5 20.9375 27.375L24.6875 18.875H25.6875L29.4375 27.375C29.5208 27.5 29.6458 27.5833 29.8125 27.625C29.9792 27.6667 30.1458 27.6667 30.3125 27.625C30.4792 27.5833 30.6042 27.5 30.6875 27.375C30.7708 27.25 30.8125 27.1042 30.8125 26.9375C30.8125 26.8542 30.7917 26.75 30.75 26.625L20.625 1.875C20.5417 1.70833 20.4375 1.54167 20.3125 1.375C20.1875 1.20833 20.0417 1.04167 19.875 0.875C19.7083 0.708333 19.5208 0.583333 19.3125 0.5C19.1042 0.416667 18.8958 0.375 18.6875 0.375C18.4792 0.375 18.2708 0.416667 18.0625 0.5C17.8542 0.583333 17.6667 0.708333 17.5 0.875C17.3333 1.04167 17.1875 1.20833 17.0625 1.375L10.6875 18.875M30.1875 5.375L25.1875 17.875H24.1875L19.1875 5.375L30.1875 5.375Z" fill="#D4AF37"/>
</svg>
